<svg width="512" height="768" viewBox="0 0 512 768" fill="none" xmlns="http://www.w3.org/2000/svg">
<defs>
    <linearGradient id="shadowGradient" x1="256" y1="0" x2="256" y2="768" gradientUnits="userSpaceOnUse">
        <stop offset="0" stop-color="#49F2FF" stop-opacity="0.35" />
        <stop offset="0.5" stop-color="#B47BFF" stop-opacity="0.25" />
        <stop offset="1" stop-color="#060320" stop-opacity="0.05" />
    </linearGradient>
</defs>
<path d="M244.6 90.4C241.4 122.1 208.2 153.2 181.5 167.3C150.5 183.9 126.8 205.7 104 235.6C77.9 270.1 82.8 314.8 98.9 345.4C110.8 368.2 124.9 386 132.4 411.5C139.9 437 116.8 450.5 96.6 458.9C67.3 471.1 54.7 505.5 58.5 533.2C62.4 560.8 77.9 577 106.9 591.2C123.1 599.1 131.7 615 137.3 632.2C145.8 658.8 151.9 686.6 178.5 706.4C205.1 726.1 245.4 736 283.8 736C322.2 736 362.6 726.1 389.2 706.4C415.8 686.6 421.9 658.8 430.4 632.2C436 615 444.5 599.1 460.8 591.2C489.8 577 505.2 560.8 509.1 533.2C512.9 505.5 500.3 471.1 471 458.9C450.8 450.5 427.7 437 435.2 411.5C442.7 386 456.8 368.2 468.7 345.4C484.8 314.8 489.7 270.1 463.6 235.6C440.8 205.7 417 183.9 386.1 167.3C359.4 153.2 326.2 122.1 323 90.4C318.6 47.8 289.3 16 256.2 16C223.1 16 247.8 17.2 244.6 90.4Z" fill="url(#shadowGradient)"/>
</svg>